<?xml version="1.0" encoding="utf-8"?>
<!-- Generator: Adobe Illustrator 16.0.3, SVG Export Plug-In . SVG Version: 6.00 Build 0)  -->
<!DOCTYPE svg PUBLIC "-//W3C//DTD SVG 1.1//EN" "http://www.w3.org/Graphics/SVG/1.1/DTD/svg11.dtd">
<svg version="1.1" xmlns="http://www.w3.org/2000/svg" xmlns:xlink="http://www.w3.org/1999/xlink" x="0px" y="0px" width="500px"
	 height="500px" viewBox="0 0 500 500" enable-background="new 0 0 500 500" xml:space="preserve">
<g id="Capa_2" display="none">
	<g display="inline">
		<path fill="none" stroke="#000000" stroke-miterlimit="10" d="M8.857,60.249"/>
	</g>
	<g display="inline">
		<path fill="none" stroke="#000000" stroke-miterlimit="10" d="M491.141,60.249"/>
	</g>
	<g display="inline">
		<path fill="none" stroke="#000000" stroke-miterlimit="10" d="M271.39,360.981c33.682,33.681-0.736,78.771-0.736,78.771
			l71.043-28.157c18.401-57.054-38.648-85.767-38.648-85.767l47.482-79.417c56.456,56.455,37.327,130.265,37.327,130.265
			c36.068-28.024,70.72-57.943,108.438-83.791c0,0-66.933-129.066-4.97-196.193c-64.6,1.104-86.133,76.195-96.07,99.937h-42.147
			c0,0,48.221-110.429,138.033-111.717C358.627,63.93,270.286,115.83,270.286,115.83h-40.575c0,0-88.342-51.9-220.854-30.919
			c89.815,1.288,138.035,111.715,138.035,111.715h-42.146c-9.939-23.742-31.472-98.833-96.072-99.937
			c61.967,67.13-4.969,196.196-4.969,196.196c37.72,25.848,72.371,55.767,108.441,83.791c0,0-19.133-73.81,37.323-130.265
			l47.483,79.417c0,0-57.054,28.713-38.647,85.767l71.041,28.157c0,0-34.416-45.09-0.736-78.771c0,0,9.843-9.386,20.472-9.386
			C261.229,351.596,271.39,360.981,271.39,360.981z"/>
	</g>
	<path display="inline" fill="none" stroke="#000000" stroke-miterlimit="10" d="M227.286,387.318
		c-9.602-2.225,2.533-29.816,22.447-29.781c20.802,0.037,31.969,26.922,22.406,29.376
		C255.718,391.126,243.747,391.126,227.286,387.318z"/>
</g>
<g id="Boceto" display="none" opacity="0.3">
	<g display="inline">
		<g>
			<path d="M122.5,221c0.521,26.074-5.626,52.357-16.325,76.071c-1.315,2.914,2.993,5.459,4.317,2.523
				C121.56,275.063,128.04,247.996,127.5,221C127.436,217.78,122.436,217.774,122.5,221L122.5,221z"/>
		</g>
	</g>
	<g display="inline">
		<g>
			<path d="M107.072,300.492c17.449,12.68,33.466,27.164,48.827,42.275c2.299,2.263,5.836-1.271,3.535-3.535
				c-15.67-15.415-32.041-30.124-49.839-43.059C106.982,294.275,104.491,298.616,107.072,300.492L107.072,300.492z"/>
		</g>
	</g>
	<g display="inline">
		<g>
			<path d="M160.744,337.002c-7.163-19.535,4.43-44.302,17.357-58.901c2.129-2.404-1.394-5.954-3.535-3.535
				c-14.038,15.854-26.433,42.521-18.643,63.767C157.023,341.333,161.857,340.036,160.744,337.002L160.744,337.002z"/>
		</g>
	</g>
	<g display="inline">
		<g>
			<path d="M172.589,276.332c3.307,14.669,14.029,26.028,21.585,38.597c1.659,2.759,5.983,0.247,4.317-2.523
				c-7.313-12.163-17.883-23.217-21.082-37.403C176.702,271.857,171.881,273.191,172.589,276.332L172.589,276.332z"/>
		</g>
	</g>
	<g display="inline">
		<g>
			<path d="M191.899,313.899c-9.729,10.537-17.113,22.293-16.732,37.101c0.083,3.218,5.083,3.227,5,0
				c-0.347-13.496,6.417-23.978,15.268-33.565C197.617,315.07,194.09,311.525,191.899,313.899L191.899,313.899z"/>
		</g>
	</g>
	<g display="inline">
		<g>
			<path d="M177.669,357.411c12.935,4.344,23.355,13.656,34.069,21.747c2.575,1.945,5.062-2.399,2.523-4.316
				c-11.124-8.401-21.84-17.745-35.264-22.253C175.933,351.56,174.629,356.39,177.669,357.411L177.669,357.411z"/>
		</g>
	</g>
	<g display="inline">
		<g>
			<path d="M214.744,378.335c-3.078-17.586-0.539-38.74,12.984-51.593c2.341-2.225-1.2-5.755-3.535-3.535
				c-14.883,14.145-17.653,37.124-14.27,56.458C210.478,382.837,215.296,381.488,214.744,378.335L214.744,378.335z"/>
		</g>
	</g>
	<g display="inline">
		<g>
			<path d="M256.551,324.244c3.44,11.421,5.177,23.101,5.765,35c0.43,8.683,0.728,19.299-5.75,25.988
				c-2.243,2.316,1.289,5.855,3.535,3.535c6.919-7.145,7.534-17.529,7.313-26.96c-0.307-13.149-2.248-26.297-6.041-38.894
				C260.445,319.836,255.619,321.148,256.551,324.244L256.551,324.244z"/>
		</g>
	</g>
	<g display="inline">
		<g>
			<path d="M263.435,385.435c8.571-8.085,21.165-9.757,28.666-19.334c1.964-2.507-1.549-6.072-3.535-3.535
				c-7.409,9.459-20.11,11.264-28.666,19.334C257.55,384.115,261.092,387.645,263.435,385.435L263.435,385.435z"/>
		</g>
	</g>
	<g display="inline">
		<g>
			<path d="M294.078,363.665c2.11-8.976,3.372-18.048,1.789-27.212c-1.646-9.526-7.652-17.38-15.1-23.221
				c-2.506-1.966-6.071,1.547-3.535,3.535c6.651,5.218,11.518,11.482,13.557,19.783c2.068,8.423,0.412,17.515-1.533,25.784
				C288.519,365.472,293.34,366.803,294.078,363.665L294.078,363.665z"/>
		</g>
	</g>
	<g display="inline">
		<g>
			<path d="M279.411,314.998c2.817-13.192,6.347-26.345,11.747-38.736c1.275-2.925-3.031-5.473-4.316-2.523
				c-5.584,12.812-9.338,26.284-12.253,39.93C273.918,316.813,278.737,318.15,279.411,314.998L279.411,314.998z"/>
		</g>
	</g>
	<g display="inline">
		<g>
			<path d="M290.174,274.262c7.438,10.396,17.201,19.006,24.949,29.195c7.715,10.146,17.907,26.094,7.442,37.775
				c-2.145,2.394,1.38,5.941,3.535,3.535c10.499-11.72,4.903-26.533-2.669-38.194c-8.296-12.774-20.146-22.544-28.939-34.835
				C292.633,269.141,288.294,271.634,290.174,274.262L290.174,274.262z"/>
		</g>
	</g>
	<g display="inline">
		<g>
			<path d="M325.435,347.435c16.892-14.65,20.983-39.9,40.16-52.276c2.698-1.741,0.194-6.071-2.523-4.316
				c-19.79,12.771-23.896,38.073-41.172,53.058C319.459,346.016,323.012,349.536,325.435,347.435L325.435,347.435z"/>
		</g>
	</g>
	<g display="inline">
		<g>
			<path d="M368.833,291.667c1.035-13.17-7.763-27.106-13.913-38.118c-8.852-15.847-18.062-31.811-23.509-49.213
				c-0.96-3.066-5.788-1.756-4.822,1.329c5.194,16.593,13.636,32.154,22.208,47.213c3.565,6.263,7.016,12.586,10.014,19.143
				c2.748,6.009,5.552,12.913,5.022,19.646C363.58,294.884,368.582,294.859,368.833,291.667L368.833,291.667z"/>
		</g>
	</g>
	<g display="inline">
		<g>
			<path d="M128.167,223c-0.259-13.022-5.223-25.472-10.341-37.262c-1.281-2.951-5.588-0.402-4.317,2.523
				c4.749,10.938,9.418,22.663,9.659,34.738C123.23,226.22,128.231,226.226,128.167,223L128.167,223z"/>
		</g>
	</g>
	<g display="inline">
		<g>
			<path d="M114.331,185.411c35.437-6.697,73.283,5.604,93.844,36.185c1.789,2.66,6.122,0.161,4.317-2.523
				c-21.891-32.558-61.73-45.618-99.49-38.482C109.836,181.188,111.181,186.006,114.331,185.411L114.331,185.411z"/>
		</g>
	</g>
	<g display="inline">
		<g>
			<path d="M200.333,220.833c22.891-0.019,45.776-0.648,68.667-0.667c3.225-0.002,3.225-5.002,0-5
				c-22.891,0.019-45.776,0.648-68.667,0.667C197.109,215.836,197.109,220.836,200.333,220.833L200.333,220.833z"/>
		</g>
	</g>
	<g display="inline">
		<g>
			<path d="M262.078,217.002c-4.43-14.488,9.491-28.957,20.859-35.458c14.128-8.079,30.956-10.556,46.728-13.467
				c3.168-0.584,1.821-5.403-1.33-4.821c-18.408,3.397-37.503,6.618-53.307,17.326c-11.176,7.573-22.054,23.745-17.772,37.75
				C258.196,221.405,263.022,220.094,262.078,217.002L262.078,217.002z"/>
		</g>
	</g>
	<g display="inline">
		<g>
			<path d="M330.589,167.002c-1.139,7.274-2.63,14.541-2.922,21.915c-0.293,7.396,1.607,14.576,4.255,21.415
				c1.151,2.974,5.988,1.682,4.822-1.329c-2.534-6.544-4.169-13.034-4.077-20.085c0.09-6.9,1.68-13.792,2.744-20.585
				C335.904,165.178,331.087,163.824,330.589,167.002L330.589,167.002z"/>
		</g>
	</g>
	<g display="inline">
		<g>
			<path d="M227.326,328.108c3.141,7.163,7.332,16.522,16.83,15.012c9.334-1.484,14.578-10.279,16.465-18.854
				c0.691-3.143-4.129-4.479-4.822-1.33c-1.432,6.505-4.758,13.314-11.687,15.159c-7.186,1.913-10.287-7.535-12.468-12.51
				C230.352,322.638,226.044,325.186,227.326,328.108L227.326,328.108z"/>
		</g>
	</g>
	<g display="inline">
		<g>
			<path d="M115.669,187.411c18.226,7.487,29.925,24.543,38.506,41.518c1.455,2.878,5.768,0.346,4.317-2.523
				c-9.257-18.311-21.946-35.786-41.494-43.815C114.015,181.364,112.729,186.203,115.669,187.411L115.669,187.411z"/>
		</g>
	</g>
	<g display="inline">
		<g>
			<path d="M155.667,230.167c7.356,0.098,14.644,1.236,22,1.333c3.226,0.043,3.222-4.957,0-5c-7.356-0.098-14.644-1.236-22-1.333
				C152.44,225.124,152.445,230.124,155.667,230.167L155.667,230.167z"/>
		</g>
	</g>
	<g display="inline">
		<g>
			<path d="M182.101,225.899c-4.413-5.683-5.369-13.13-9.968-18.796c-4.596-5.661-10.346-9.834-16.538-13.595
				c-12.907-7.839-27.378-11.457-41.931-14.918c-3.135-0.746-4.465,4.075-1.329,4.821c14.106,3.355,28.247,6.747,40.736,14.415
				c6.12,3.757,11.828,7.838,16.144,13.671c4.069,5.5,5.114,12.482,9.351,17.938C180.542,231.979,184.053,228.412,182.101,225.899
				L182.101,225.899z"/>
		</g>
	</g>
	<g display="inline">
		<g>
			<path d="M277,222.833c10.283,0.491,20.4-1.855,30.667-2c3.222-0.045,3.226-5.045,0-5c-10.267,0.145-20.384,2.491-30.667,2
				C273.775,217.68,273.79,222.68,277,222.833L277,222.833z"/>
		</g>
	</g>
	<g display="inline">
		<g>
			<path d="M325.833,175c-0.924,7.75-7.902,13.487-11.868,19.799c-4.517,7.188-2.484,15.722-4.709,23.536
				c-0.884,3.107,3.94,4.425,4.822,1.329c1.119-3.935,1.296-7.931,1.509-11.997c0.286-5.475,1.867-9.412,5.021-13.787
				c4.354-6.038,9.307-11.183,10.225-18.881C331.215,171.802,326.21,171.839,325.833,175L325.833,175z"/>
		</g>
	</g>
</g>
<g id="Capa_4" display="none">
	<rect display="inline" stroke="#000000" stroke-miterlimit="10" width="500" height="500"/>
</g>
<g id="LOGOBLANCO">
	<g>
		<path fill="#FFFFFF" d="M8.857,60.249"/>
	</g>
	<g>
		<path fill="#FFFFFF" d="M491.141,60.249"/>
	</g>
	<g>
		<path fill="#FFFFFF" d="M271.39,360.981c33.682,33.681-0.736,78.771-0.736,78.771l71.043-28.157
			c18.401-57.054-38.648-85.767-38.648-85.767l47.482-79.417c56.456,56.455,37.327,130.265,37.327,130.265
			c36.068-28.024,70.72-57.943,108.438-83.791c0,0-66.933-129.066-4.97-196.193c-64.6,1.104-86.133,76.195-96.07,99.937h-42.147
			c0,0,48.221-110.429,138.033-111.717C358.627,63.93,270.286,115.83,270.286,115.83h-40.575c0,0-88.342-51.9-220.854-30.919
			c89.815,1.288,138.035,111.715,138.035,111.715h-42.146c-9.939-23.742-31.472-98.833-96.072-99.937
			c61.967,67.13-4.969,196.196-4.969,196.196c37.72,25.848,72.371,55.767,108.441,83.791c0,0-19.133-73.81,37.323-130.265
			l47.483,79.417c0,0-57.054,28.713-38.647,85.767l71.041,28.157c0,0-34.416-45.09-0.736-78.771c0,0,9.843-9.386,20.472-9.386
			C261.229,351.596,271.39,360.981,271.39,360.981z"/>
	</g>
	<path fill="#FFFFFF" d="M227.286,387.318c-9.602-2.225,2.533-29.816,22.447-29.781c20.802,0.037,31.969,26.922,22.406,29.376
		C255.718,391.126,243.747,391.126,227.286,387.318z"/>
</g>
<g id="LOGONEGRO" display="none">
	<g display="inline">
		<path fill="#FFFFFF" d="M8.857,60.249"/>
	</g>
	<g display="inline">
		<path fill="#FFFFFF" d="M491.141,60.249"/>
	</g>
	<g display="inline">
		<path d="M271.39,360.981c33.682,33.681-0.736,78.771-0.736,78.771l71.043-28.157c18.401-57.054-38.648-85.767-38.648-85.767
			l47.482-79.417c56.456,56.455,37.327,130.265,37.327,130.265c36.068-28.024,70.72-57.943,108.438-83.791
			c0,0-66.933-129.066-4.97-196.193c-64.6,1.104-86.133,76.195-96.07,99.937h-42.147c0,0,48.221-110.429,138.033-111.717
			C358.627,63.93,270.286,115.83,270.286,115.83h-40.575c0,0-88.342-51.9-220.854-30.919
			c89.815,1.288,138.035,111.715,138.035,111.715h-42.146c-9.939-23.742-31.472-98.833-96.072-99.937
			c61.967,67.13-4.969,196.196-4.969,196.196c37.72,25.848,72.371,55.767,108.441,83.791c0,0-19.133-73.81,37.323-130.265
			l47.483,79.417c0,0-57.054,28.713-38.647,85.767l71.041,28.157c0,0-34.416-45.09-0.736-78.771c0,0,9.843-9.386,20.472-9.386
			C261.229,351.596,271.39,360.981,271.39,360.981z"/>
	</g>
	<path display="inline" d="M227.286,387.318c-9.602-2.225,2.533-29.816,22.447-29.781c20.802,0.037,31.969,26.922,22.406,29.376
		C255.718,391.126,243.747,391.126,227.286,387.318z"/>
</g>
</svg>
